<svg xmlns="http://www.w3.org/2000/svg" viewBox="0 0 200 140" width="200" height="140">
  <!-- Background -->
  <rect width="200" height="140" fill="#f5f5f5"/>
  <!-- Title bar -->
  <rect width="200" height="28" fill="#009e73"/>
  <text x="100" y="12" font-family="sans-serif" font-size="8" font-weight="bold" fill="white" text-anchor="middle">Self-organizing Robot Teams</text>
  <text x="100" y="23" font-family="sans-serif" font-size="6.5" fill="#ccf5ea" text-anchor="middle">COORDINATION 2025</text>
  <!-- Grid floor -->
  <line x1="20" y1="120" x2="180" y2="120" stroke="#ccc" stroke-width="0.5"/>
  <line x1="20" y1="110" x2="180" y2="110" stroke="#ccc" stroke-width="0.5"/>
  <line x1="20" y1="100" x2="180" y2="100" stroke="#ccc" stroke-width="0.5"/>
  <line x1="20" y1="90" x2="180" y2="90" stroke="#ccc" stroke-width="0.5"/>
  <line x1="20" y1="80" x2="180" y2="80" stroke="#ccc" stroke-width="0.5"/>
  <line x1="20" y1="70" x2="180" y2="70" stroke="#ccc" stroke-width="0.5"/>
  <line x1="20" y1="60" x2="180" y2="60" stroke="#ccc" stroke-width="0.5"/>
  <!-- Robot bodies -->
  <!-- Leader robot (gold) -->
  <rect x="90" y="77" width="20" height="14" rx="3" fill="#e69f00"/>
  <rect x="93" y="74" width="14" height="5" rx="1" fill="#c47d00"/>
  <circle cx="100" cy="72" r="3" fill="#c47d00"/>
  <!-- Follower robots (teal) -->
  <rect x="45" y="87" width="16" height="12" rx="2" fill="#009e73"/>
  <rect x="48" y="85" width="10" height="4" rx="1" fill="#007a59"/>
  <rect x="139" y="87" width="16" height="12" rx="2" fill="#009e73"/>
  <rect x="142" y="85" width="10" height="4" rx="1" fill="#007a59"/>
  <rect x="65" y="107" width="16" height="12" rx="2" fill="#009e73"/>
  <rect x="68" y="105" width="10" height="4" rx="1" fill="#007a59"/>
  <rect x="119" y="107" width="16" height="12" rx="2" fill="#009e73"/>
  <rect x="122" y="105" width="10" height="4" rx="1" fill="#007a59"/>
  <!-- Communication links -->
  <line x1="100" y1="84" x2="53" y2="93" stroke="#e69f00" stroke-width="1.2" stroke-dasharray="3,2" opacity="0.8"/>
  <line x1="100" y1="84" x2="147" y2="93" stroke="#e69f00" stroke-width="1.2" stroke-dasharray="3,2" opacity="0.8"/>
  <line x1="53" y1="99" x2="73" y2="113" stroke="#009e73" stroke-width="1" stroke-dasharray="3,2" opacity="0.7"/>
  <line x1="147" y1="99" x2="127" y2="113" stroke="#009e73" stroke-width="1" stroke-dasharray="3,2" opacity="0.7"/>
  <!-- Leader star -->
  <text x="100" y="68" font-family="sans-serif" font-size="7" fill="#e69f00" text-anchor="middle">★</text>
</svg>
